<mxfile host="app.diagrams.net" modified="2024-01-11T19:03:49.566Z" agent="Mozilla/5.0 (Windows NT 10.0; Win64; x64) AppleWebKit/537.36 (KHTML, like Gecko) Chrome/120.0.0.0 Safari/537.36" etag="LtZq47LadlFGlPKCqO8Q" version="22.1.18" type="github">
  <diagram name="Страница — 1" id="ijtBKDP4o0SxRSnAWFf-">
    <mxGraphModel dx="2928" dy="1757" grid="0" gridSize="10" guides="1" tooltips="1" connect="1" arrows="1" fold="1" page="0" pageScale="1" pageWidth="827" pageHeight="1169" math="0" shadow="0">
      <root>
        <mxCell id="0" />
        <mxCell id="1" parent="0" />
        <mxCell id="IkUE4LlGtmxVOnPVOwAJ-33" style="edgeStyle=none;curved=1;rounded=0;orthogonalLoop=1;jettySize=auto;html=1;entryX=0.25;entryY=0;entryDx=0;entryDy=0;fontSize=12;startSize=8;endSize=8;" edge="1" parent="1" source="IkUE4LlGtmxVOnPVOwAJ-1" target="IkUE4LlGtmxVOnPVOwAJ-8">
          <mxGeometry relative="1" as="geometry" />
        </mxCell>
        <mxCell id="IkUE4LlGtmxVOnPVOwAJ-1" value="Глеб" style="shape=umlActor;verticalLabelPosition=bottom;verticalAlign=top;html=1;outlineConnect=0;fontSize=16;" vertex="1" parent="1">
          <mxGeometry x="-833" y="-421" width="30" height="60" as="geometry" />
        </mxCell>
        <mxCell id="IkUE4LlGtmxVOnPVOwAJ-32" style="edgeStyle=none;curved=1;rounded=0;orthogonalLoop=1;jettySize=auto;html=1;entryX=0.5;entryY=0;entryDx=0;entryDy=0;fontSize=12;startSize=8;endSize=8;" edge="1" parent="1" source="IkUE4LlGtmxVOnPVOwAJ-2" target="IkUE4LlGtmxVOnPVOwAJ-8">
          <mxGeometry relative="1" as="geometry" />
        </mxCell>
        <mxCell id="IkUE4LlGtmxVOnPVOwAJ-2" value="Максим" style="shape=umlActor;verticalLabelPosition=bottom;verticalAlign=top;html=1;outlineConnect=0;fontSize=16;" vertex="1" parent="1">
          <mxGeometry x="-550" y="-421" width="30" height="60" as="geometry" />
        </mxCell>
        <mxCell id="IkUE4LlGtmxVOnPVOwAJ-31" style="edgeStyle=none;curved=1;rounded=0;orthogonalLoop=1;jettySize=auto;html=1;entryX=0.75;entryY=0;entryDx=0;entryDy=0;fontSize=12;startSize=8;endSize=8;" edge="1" parent="1" source="IkUE4LlGtmxVOnPVOwAJ-6" target="IkUE4LlGtmxVOnPVOwAJ-8">
          <mxGeometry relative="1" as="geometry" />
        </mxCell>
        <mxCell id="IkUE4LlGtmxVOnPVOwAJ-6" value="Саша" style="shape=umlActor;verticalLabelPosition=bottom;verticalAlign=top;html=1;outlineConnect=0;fontSize=16;" vertex="1" parent="1">
          <mxGeometry x="-268" y="-421" width="30" height="60" as="geometry" />
        </mxCell>
        <mxCell id="IkUE4LlGtmxVOnPVOwAJ-7" value="Полноценное банковское приложение, и типо мы миллионеры" style="rounded=0;whiteSpace=wrap;html=1;fontSize=16;" vertex="1" parent="1">
          <mxGeometry x="-839" y="464" width="608" height="166" as="geometry" />
        </mxCell>
        <mxCell id="IkUE4LlGtmxVOnPVOwAJ-34" style="edgeStyle=none;curved=1;rounded=0;orthogonalLoop=1;jettySize=auto;html=1;entryX=0.5;entryY=0;entryDx=0;entryDy=0;fontSize=12;startSize=8;endSize=8;" edge="1" parent="1" source="IkUE4LlGtmxVOnPVOwAJ-8" target="IkUE4LlGtmxVOnPVOwAJ-12">
          <mxGeometry relative="1" as="geometry" />
        </mxCell>
        <mxCell id="IkUE4LlGtmxVOnPVOwAJ-8" value="Bank Account" style="rounded=0;whiteSpace=wrap;html=1;fontSize=16;" vertex="1" parent="1">
          <mxGeometry x="-629.25" y="-224" width="188.5" height="98" as="geometry" />
        </mxCell>
        <mxCell id="IkUE4LlGtmxVOnPVOwAJ-35" style="edgeStyle=none;curved=1;rounded=0;orthogonalLoop=1;jettySize=auto;html=1;entryX=0.5;entryY=0;entryDx=0;entryDy=0;fontSize=12;startSize=8;endSize=8;" edge="1" parent="1" source="IkUE4LlGtmxVOnPVOwAJ-12" target="IkUE4LlGtmxVOnPVOwAJ-13">
          <mxGeometry relative="1" as="geometry" />
        </mxCell>
        <mxCell id="IkUE4LlGtmxVOnPVOwAJ-12" value="Transaction" style="rounded=0;whiteSpace=wrap;html=1;fontSize=16;" vertex="1" parent="1">
          <mxGeometry x="-629.25" y="11" width="188.5" height="98" as="geometry" />
        </mxCell>
        <mxCell id="IkUE4LlGtmxVOnPVOwAJ-36" style="edgeStyle=none;curved=1;rounded=0;orthogonalLoop=1;jettySize=auto;html=1;fontSize=12;startSize=8;endSize=8;" edge="1" parent="1" source="IkUE4LlGtmxVOnPVOwAJ-13" target="IkUE4LlGtmxVOnPVOwAJ-7">
          <mxGeometry relative="1" as="geometry">
            <mxPoint x="-535" y="463" as="targetPoint" />
          </mxGeometry>
        </mxCell>
        <mxCell id="IkUE4LlGtmxVOnPVOwAJ-13" value="Client" style="rounded=0;whiteSpace=wrap;html=1;fontSize=16;" vertex="1" parent="1">
          <mxGeometry x="-629.25" y="237" width="188.5" height="98" as="geometry" />
        </mxCell>
      </root>
    </mxGraphModel>
  </diagram>
</mxfile>
